<svg width="32" height="32" viewBox="0 0 32 32" fill="none" xmlns="http://www.w3.org/2000/svg">
<mask id="path-1-inside-1_640_779" fill="white">
<path d="M0 16C0 7.16344 7.16344 0 16 0V0C24.8366 0 32 7.16344 32 16V16C32 24.8366 24.8366 32 16 32V32C7.16344 32 0 24.8366 0 16V16Z"/>
</mask>
<path d="M0 16C0 7.16344 7.16344 0 16 0V0C24.8366 0 32 7.16344 32 16V16C32 24.8366 24.8366 32 16 32V32C7.16344 32 0 24.8366 0 16V16Z" fill="black"/>
<path d="M0 0H32H0ZM32 17C32 25.8366 24.8366 33 16 33C7.16344 33 0 25.8366 0 17V16C0 24.2843 7.16344 31 16 31C24.8366 31 32 24.2843 32 16V17ZM0 32V0V32ZM32 0V32V0Z" fill="white" fill-opacity="0.16" mask="url(#path-1-inside-1_640_779)"/>
<path d="M13.8201 6.07996C20.0601 6.79996 18.1801 11.48 15.8201 9.87996C15.5401 8.55995 14.6001 7.09996 13.6601 6.19996L13.8201 6.07996ZM22.1401 10.72C20.7401 17.82 16.5201 22.88 6.74012 24.8L6.62012 24.56C14.7201 21.84 18.3601 16.94 19.2201 10.72H22.1401ZM22.7001 8.69996C22.7001 8.69996 24.3001 9.95996 25.2201 10.84C25.1601 11.06 24.9601 11.16 24.6601 11.16H6.96012L6.80012 10.58H21.2801L22.7001 8.69996ZM11.2401 10.72C13.0601 17.84 18.7801 21.06 25.4801 22.48L25.4201 22.72C24.2401 22.88 23.3801 23.62 22.9401 24.8C16.6601 22.74 12.4201 18.88 10.9401 10.9L11.2401 10.72Z" fill="white"/>
</svg>
